<?xml version="1.0" encoding="UTF-8"?>
<svg version="1.1" viewBox="0 0 2000 2000" xmlns="http://www.w3.org/2000/svg" xmlns:xlink="http://www.w3.org/1999/xlink">
 <defs>
  <clipPath id="g">
   <use width="100%" height="100%" xlink:href="#j"/>
  </clipPath>
  <clipPath id="h">
   <use width="100%" height="100%" xlink:href="#k"/>
  </clipPath>
  <clipPath id="i">
   <use width="100%" height="100%" xlink:href="#l"/>
  </clipPath>
 </defs>
 <g clip-path="url(#h)">
  <g id="k">
   <g transform="rotate(-9.3548 1219.6 -181.88)" clip-path="url(#g)" fill="#270000">
    <g id="j">
     <path d="m550.78 179.69 144.53 255.86 80.078-35.156-109.38-300.78z" fill="#270000"/>
     <path d="m775.39 400.39-7.8125-330.08h150.39l-52.734 330.08z" fill="#270000"/>
    </g>
   </g>
   <path d="m517.58 501.95s-50.781-29.297-72.266 15.625c-21.484 44.922 13.672 66.406 23.438 72.266 9.7656 5.8594 48.828-87.891 48.828-87.891z" fill="#1c1c1c"/>
   <path d="m472.86 576.53s-70.312-86.184-146.48-75.275c-76.172 10.909-100.59 34.91-100.59 34.91l33.203 6.5456s119.14 118.91 196.29 64.365c77.148-54.547 17.578-30.546 17.578-30.546z" fill="#1c1c1c"/>
   <path d="m505.57 550.52s-11.02-110.68-80.546-143.65-103.13-26.448-103.13-26.448l24.065 23.794s33.651 164.93 128.09 162.06c94.441-2.8665 31.524-15.757 31.524-15.757z" fill="#1c1c1c"/>
  </g>
 </g>
 <g clip-path="url(#i)">
  <g id="l">
   <path d="m999.88 292.91c-295.31 0-534.71 154.69-534.71 345.5 0.25912 118.91 95.133 229.38 251.15 292.44-2.5719 6.9487-4.0396 12.601-6.266 17.585-132.85 55.836-303.37-45.232-303.62 51.484 0.23609 82.917-28.279 285.29 74.045 341.64l222.27-93.775c-18.123 181.47-112.59 555.56 88.358 633.99 278.71 48.384 220.87-294.71 247.04-360.33l57.83 124.08c151.22 107.23 64.745-40.962 169.44-107.18l43.34-207.18-10.379-94.495 196.69 119.42c114.13 8.2633 156.52-290.15 156.69-373.11-0.1324-96.798-229.12 21.109-362.09-34.77l-1.9762-17.73-3.0929 0.21676c155.5-63.211 249.9-173.57 249.98-292.28 0-190.82-239.4-345.5-534.71-345.5z" fill="#212121"/>
   <path d="m1477.6 628.67c0 130.18-213.87 133.87-477.7 133.87-263.82 0-477.7-3.6859-477.7-133.87s213.87-87.072 477.7-87.072c263.82 0 477.7-43.109 477.7 87.072z" fill="#ffe6d5"/>
   <path d="m696.62 1288.2-13.252 81.925 625.2-39.447-9.8234-82.263z" color="#000000" fill="#372110" fill-rule="evenodd" style="text-indent:0;text-transform:none"/>
   <path d="m980.09 613.21c0 47.016-34.216 85.128-76.422 85.128s-76.422-38.112-76.422-85.128 34.216-85.128 76.422-85.128 76.422 38.112 76.422 85.128z" fill="#2b1100" stroke="#000" stroke-width="1.9347"/>
   <path d="m968.48 580.32c0 23.507-18.624 42.564-41.597 42.564s-41.597-19.057-41.597-42.564 18.624-42.564 41.597-42.564 41.597 19.057 41.597 42.564z" fill="#fff" stroke="#000" stroke-width="1.9347"/>
   <path d="m796.3 520.37c128.16-1.8464 163.16 53.528 243.78 75.455" fill="none" stroke="#000" stroke-linecap="round" stroke-linejoin="round" stroke-width="33.471"/>
   <path d="m879.15 568.97c0 9.0904-7.196 16.46-16.073 16.46-8.8766 0-16.073-7.3693-16.073-16.46 0-9.0904 7.196-16.46 16.073-16.46 8.8766 0 16.073 7.3693 16.073 16.46z" fill="#fff" stroke="#000" stroke-width="1.9347"/>
   <path d="m878.13 598.03c0 4.0089-2.6678 7.2589-5.9588 7.2589s-5.9587-3.2499-5.9587-7.2589c0-4.0089 2.6678-7.2589 5.9587-7.2589s5.9588 3.2499 5.9588 7.2589z" fill="#fff" stroke="#000" stroke-width="1.9347"/>
   <path d="m818.53 697.27c56.005-12.463 57.972-6.372 113.39 11.862" fill="none" stroke="#f6d3bc" stroke-linecap="round" stroke-linejoin="round" stroke-width="10"/>
   <path d="m889.54 497.66c79.137-2.4019 100.75 69.631 150.52 98.156" fill="none" stroke="#000" stroke-linecap="round" stroke-linejoin="round" stroke-width="33.471"/>
   <path d="m1196.9 613.21c0 47.016 34.216 85.128 76.422 85.128s76.422-38.112 76.422-85.128-34.216-85.128-76.422-85.128-76.422 38.112-76.422 85.128z" fill="#2b1100" stroke="#000" stroke-width="1.9347"/>
   <path d="m1208.5 580.32c0 23.507 18.624 42.564 41.597 42.564s41.597-19.057 41.597-42.564-18.624-42.564-41.597-42.564-41.597 19.057-41.597 42.564z" fill="#fff" stroke="#000" stroke-width="1.9347"/>
   <path d="m1380.7 520.37c-128.16-1.8464-163.16 53.528-243.78 75.455" fill="none" stroke="#000" stroke-linecap="round" stroke-linejoin="round" stroke-width="33.471"/>
   <path d="m1297.9 568.97c0 9.0904 7.196 16.46 16.073 16.46s16.073-7.3693 16.073-16.46c0-9.0904-7.196-16.46-16.073-16.46s-16.073 7.3693-16.073 16.46z" fill="#fff" stroke="#000" stroke-width="1.9347"/>
   <path d="m1298.9 598.03c0 4.0089 2.6678 7.2589 5.9587 7.2589s5.9588-3.2499 5.9588-7.2589c0-4.0089-2.6679-7.2589-5.9588-7.2589s-5.9587 3.2499-5.9587 7.2589z" fill="#fff" stroke="#000" stroke-width="1.9347"/>
   <path d="m1358.9 698.51c-60.438-18.583-95.987 2.141-114.02 13.133" fill="#ffe6d5" stroke="#f6d3bc" stroke-linecap="round" stroke-linejoin="round" stroke-width="10"/>
   <path d="m1287.5 497.66c-79.137-2.4019-100.75 69.631-150.52 98.156" fill="none" stroke="#000" stroke-linecap="round" stroke-linejoin="round" stroke-width="33.471"/>
   <path d="m974.95 1327.7 40.111-42.402c12.416 25.588 117.69 198.62 158.81 271.28 5.6757 9.4273 7.3407 21.183 4.5055 31.816-2.8352 10.632-10.132 19.999-19.748 25.349-9.6157 5.35-21.422 6.6114-31.951 3.4141-10.529-3.1974-19.64-10.811-24.658-20.604-51.941-93.438-70.224-168.83-127.07-268.85z" color="#000000" fill="#2a180c" style="text-indent:0;text-transform:none"/>
   <path d="m1074.1 1315.1c17.52-32.408-9.7896-68.85-43.147-77.623-122.82-30.672-148.95 107.09-82.493 154.93l33.105-51.313c-19.352-39.308 0.97583-71.299 30.903-51.667-12.416 25.588-124.89 193.38-166.01 266.03-5.6757 9.4273-7.3407 21.183-4.5055 31.816 2.8352 10.632 10.132 19.999 19.748 25.349 9.6157 5.35 21.422 6.6114 31.951 3.4141 10.529-3.1974 19.64-10.811 24.658-20.604l103.73-186.63 48.177-86.717z" color="#000000" fill="#311c0e" style="text-indent:0;text-transform:none"/>
   <path d="m974.66 1327.9c-25.902-32.761-4.8601-62.713 30.767-47.753 13.934 19.286 32.745 35.945 68.163 43.661 28.527 17.644-20.234 90.394-41.909 71.532-19.445-21.866-44.952-35.245-57.02-67.439z" color="#000000" fill="#28170b" style="text-indent:0;text-transform:none"/>
   <path d="m339.01 1201.8c22.496 7.7333 42.126 9.5403 53.288-22.93l63.334-184.24c8.0113-23.305 5.5301-46.507-4.8028-60.634 26.737 3.6479 50.879 31.969 112.22 16.731-23.575-41.821-77.985-48.654-107.45-58.784 16.732-10.05 31.638-28.863 39.905-52.912l232.38-676c14.696-42.751 15.148-76.666-11.322-140.97 0 0-80.909 61.457-95.605 104.21l-232.38 676c-8.267 24.048-8.0795 48.05-1.0642 66.264-27.972-4.305-67.068-32.389-120.88-19.71 29.788 49.786 70.039 45.923 98.786 55.805-16.836 4.7895-33.058 21.56-41.07 44.865l-63.334 184.24c-11.162 32.47 5.4293 43.115 27.925 50.848z" fill="#372110"/>
   <path d="m441.83 821.79-19.766-41.949 40.393-19.033 19.766 41.949z" fill="#fff"/>
   <path d="m473.68 729.15-19.766-41.949 40.393-19.033 19.766 41.949z" fill="#fff"/>
   <path d="m505.53 636.52-19.766-41.949 40.393-19.033 19.766 41.949z" fill="#fff"/>
   <path d="m537.34 543.9-19.766-41.949 40.393-19.033 19.766 41.949z" fill="#fff"/>
   <path d="m569.2 451.27-19.766-41.949 40.393-19.033 19.766 41.949z" fill="#fff"/>
   <path d="m601.05 358.63-19.766-41.949 40.393-19.033 19.766 41.949z" fill="#fff"/>
   <path d="m632.86 266.02-19.766-41.949 40.393-19.033 19.766 41.949z" fill="#fff"/>
   <path d="m664.71 173.38-19.766-41.949 40.393-19.033 19.766 41.949z" fill="#fff"/>
   <path d="m495.39 991.38c-7.9557 22.298-32.182 34.033-54.11 26.209-21.928-7.8236-33.255-32.243-25.3-54.542s32.182-34.033 54.11-26.209c21.928 7.8236 33.255 32.243 25.3 54.542z" fill="#1a1a1a"/>
   <path d="m465.71 1063c-23.045 64.59-93.255 98.569-156.82 75.891-63.56-22.677-96.406-93.424-73.361-158.01 23.045-64.59 93.255-98.569 156.82-75.891s96.406 93.425 73.361 158.01z" fill="#1a1a1a"/>
   <rect transform="matrix(.12551 -.99209 .9958 .091539 0 0)" x="-1694.9" y="1215.8" width="554.66" height="338.37" ry="169.19" fill="#1a1a1a"/>
   <path d="m1492.5 1218.9c-22.346-8.1556-38.734-19.111-26.963-51.365l66.792-183.01c8.4488-23.15 24.985-39.614 41.907-44.083-23.069-14-59.656-7.1969-97.718-57.656 44.646-17.648 91.221 11.3 120.49 21.982-6.6712-18.343-6.4071-42.344 2.3114-66.232l245.07-671.5c15.499-42.467 36.501-69.1 97.55-102.39 0 0 24.165 98.688 8.6658 141.15l-245.07 671.5c-8.7184 23.888-23.976 42.418-40.894 52.151 24.442 14.267 72.498 17.063 106.32 60.797-54.488 19.925-83.328-8.4195-111.88-18.841 10.064 14.321 12.109 37.564 3.6601 60.714l-66.792 183.01c-11.772 32.255-31.364 30.078-53.71 21.923z" fill="#372110"/>
   <path d="m1651.8 858.96 41.768-20.146-19.398-40.219-41.768 20.146z" fill="#fff"/>
   <path d="m1685.4 766.94 41.768-20.146-19.398-40.219-41.768 20.146z" fill="#fff"/>
   <path d="m1719 674.91 41.768-20.146-19.398-40.219-41.768 20.146z" fill="#fff"/>
   <path d="m1752.6 582.93 41.768-20.146-19.398-40.219-41.768 20.146z" fill="#fff"/>
   <path d="m1786.2 490.91 41.768-20.146-19.398-40.219-41.768 20.146z" fill="#fff"/>
   <path d="m1819.8 398.88 41.768-20.146-19.398-40.219-41.768 20.146z" fill="#fff"/>
   <path d="m1853.3 306.9 41.768-20.146-19.398-40.219-41.768 20.146z" fill="#fff"/>
   <path d="m1886.9 214.88 41.768-20.146-19.398-40.219-41.768 20.146z" fill="#fff"/>
   <path d="m1503.5 957c-7.8583 22.333 3.5755 46.703 25.537 54.431s46.137-4.1122 53.996-26.445c7.8583-22.333-3.5755-46.703-25.537-54.431s-46.137 4.1122-53.996 26.445z" fill="#1a1a1a"/>
   <path d="m1481.4 1031.4c-22.763 64.69 10.391 135.29 74.049 157.69s133.72-11.884 156.48-76.574c22.763-64.69-10.391-135.29-74.049-157.69s-133.72 11.884-156.48 76.575z" fill="#1a1a1a"/>
  </g>
 </g>
</svg>
